<svg width="100" height="100" viewBox="0 0 100 100" fill="none" xmlns="http://www.w3.org/2000/svg">
<g filter="url(#filter0_b_0_66)">
<path d="M15.4315 72.4077C16.3839 70.217 18.5451 68.8 20.9339 68.8H79.0661C81.4549 68.8 83.6161 70.217 84.5686 72.4077L90.3512 85.7077C92.0741 89.6704 89.1698 94.1 84.8488 94.1H15.1513C10.8303 94.1 7.92597 89.6704 9.64887 85.7077L15.4315 72.4077Z" fill="#7D7CCC"/>
</g>
<g filter="url(#filter1_b_0_66)">
<path d="M81.9 36.9C81.9 49.6344 65.2337 68.9592 55.9942 78.694C52.7016 82.1632 47.2985 82.1632 44.0059 78.694C34.7664 68.9592 18.1 49.6344 18.1 36.9C18.1 19.2821 32.3822 5 50 5C67.6179 5 81.9 19.2821 81.9 36.9Z" fill="white" fill-opacity="0.3"/>
</g>
<g filter="url(#filter2_b_0_66)">
<path fill-rule="evenodd" clip-rule="evenodd" d="M78.2412 47.0198C79.9196 43.3279 80.9 39.8818 80.9 36.9C80.9 19.8344 67.0656 6 50 6C32.9344 6 19.1 19.8344 19.1 36.9C19.1 39.8818 20.0805 43.3279 21.7589 47.0198C23.4322 50.7008 25.7687 54.5601 28.4087 58.3503C33.6889 65.9308 40.1267 73.1543 44.7312 78.0056C47.6295 81.0593 52.3706 81.0593 55.2689 78.0056C59.8734 73.1543 66.3112 65.9308 71.5914 58.3503C74.2314 54.5601 76.5678 50.7008 78.2412 47.0198ZM55.9942 78.694C65.2337 68.9592 81.9 49.6344 81.9 36.9C81.9 19.2821 67.6179 5 50 5C32.3822 5 18.1 19.2821 18.1 36.9C18.1 49.6344 34.7664 68.9592 44.0059 78.694C47.2985 82.1632 52.7016 82.1632 55.9942 78.694Z" fill="url(#paint0_linear_0_66)"/>
</g>
<path d="M59.9 35.8C59.9 41.2676 55.4677 45.7 50 45.7C44.5324 45.7 40.1 41.2676 40.1 35.8C40.1 30.3324 44.5324 25.9 50 25.9C55.4677 25.9 59.9 30.3324 59.9 35.8Z" fill="white"/>
<defs>
<filter id="filter0_b_0_66" x="5.14471" y="64.8" width="89.7106" height="33.3" filterUnits="userSpaceOnUse" color-interpolation-filters="sRGB">
<feFlood flood-opacity="0" result="BackgroundImageFix"/>
<feGaussianBlur in="BackgroundImageFix" stdDeviation="2"/>
<feComposite in2="SourceAlpha" operator="in" result="effect1_backgroundBlur_0_66"/>
<feBlend mode="normal" in="SourceGraphic" in2="effect1_backgroundBlur_0_66" result="shape"/>
</filter>
<filter id="filter1_b_0_66" x="14.1" y="1" width="71.8" height="84.2959" filterUnits="userSpaceOnUse" color-interpolation-filters="sRGB">
<feFlood flood-opacity="0" result="BackgroundImageFix"/>
<feGaussianBlur in="BackgroundImageFix" stdDeviation="2"/>
<feComposite in2="SourceAlpha" operator="in" result="effect1_backgroundBlur_0_66"/>
<feBlend mode="normal" in="SourceGraphic" in2="effect1_backgroundBlur_0_66" result="shape"/>
</filter>
<filter id="filter2_b_0_66" x="14.1" y="1" width="71.8" height="84.2959" filterUnits="userSpaceOnUse" color-interpolation-filters="sRGB">
<feFlood flood-opacity="0" result="BackgroundImageFix"/>
<feGaussianBlur in="BackgroundImageFix" stdDeviation="2"/>
<feComposite in2="SourceAlpha" operator="in" result="effect1_backgroundBlur_0_66"/>
<feBlend mode="normal" in="SourceGraphic" in2="effect1_backgroundBlur_0_66" result="shape"/>
</filter>
<linearGradient id="paint0_linear_0_66" x1="74.7225" y1="16.165" x2="13.8769" y2="28.692" gradientUnits="userSpaceOnUse">
<stop stop-color="white" stop-opacity="0.46"/>
<stop offset="0.675496" stop-color="white" stop-opacity="0"/>
</linearGradient>
</defs>
</svg>
