<svg width="100" height="100" viewBox="0 0 100 100" fill="none" xmlns="http://www.w3.org/2000/svg">
<g filter="url(#filter0_b_0_56)">
<path d="M5 38.9955C5 34.9093 7.75272 31.336 11.7036 30.2934L78.4691 12.6747C82.2746 11.6705 86 14.5404 86 18.4761V55.8643C86 59.7798 83.4685 63.2461 79.7387 64.4375L12.8258 85.8125C8.95477 87.0491 5 84.1607 5 80.097L5 38.9955Z" fill="#7D7CCC"/>
</g>
<g filter="url(#filter1_b_0_56)">
<path d="M5 41.0625C5 36.0919 9.02944 32.0625 14 32.0625H86C90.9706 32.0625 95 36.0919 95 41.0625V79.3125C95 84.2831 90.9706 88.3125 86 88.3125H14C9.02944 88.3125 5 84.2831 5 79.3125L5 41.0625Z" fill="white" fill-opacity="0.3"/>
</g>
<g filter="url(#filter2_b_0_56)">
<path fill-rule="evenodd" clip-rule="evenodd" d="M86 33.0625H14C9.58172 33.0625 6 36.6442 6 41.0625V79.3125C6 83.7308 9.58172 87.3125 14 87.3125H86C90.4183 87.3125 94 83.7308 94 79.3125V41.0625C94 36.6442 90.4183 33.0625 86 33.0625ZM14 32.0625C9.02944 32.0625 5 36.0919 5 41.0625V79.3125C5 84.2831 9.02944 88.3125 14 88.3125H86C90.9706 88.3125 95 84.2831 95 79.3125V41.0625C95 36.0919 90.9706 32.0625 86 32.0625H14Z" fill="url(#paint0_linear_0_56)"/>
</g>
<path d="M12.875 52.3125C12.875 49.8272 14.8897 47.8125 17.375 47.8125H35.375C37.8603 47.8125 39.875 49.8272 39.875 52.3125V52.3125C39.875 54.7978 37.8603 56.8125 35.375 56.8125H17.375C14.8897 56.8125 12.875 54.7978 12.875 52.3125V52.3125Z" fill="white"/>
<defs>
<filter id="filter0_b_0_56" x="1" y="8.4729" width="89" height="81.6284" filterUnits="userSpaceOnUse" color-interpolation-filters="sRGB">
<feFlood flood-opacity="0" result="BackgroundImageFix"/>
<feGaussianBlur in="BackgroundImageFix" stdDeviation="2"/>
<feComposite in2="SourceAlpha" operator="in" result="effect1_backgroundBlur_0_56"/>
<feBlend mode="normal" in="SourceGraphic" in2="effect1_backgroundBlur_0_56" result="shape"/>
</filter>
<filter id="filter1_b_0_56" x="1" y="28.0625" width="98" height="64.25" filterUnits="userSpaceOnUse" color-interpolation-filters="sRGB">
<feFlood flood-opacity="0" result="BackgroundImageFix"/>
<feGaussianBlur in="BackgroundImageFix" stdDeviation="2"/>
<feComposite in2="SourceAlpha" operator="in" result="effect1_backgroundBlur_0_56"/>
<feBlend mode="normal" in="SourceGraphic" in2="effect1_backgroundBlur_0_56" result="shape"/>
</filter>
<filter id="filter2_b_0_56" x="1" y="28.0625" width="98" height="64.25" filterUnits="userSpaceOnUse" color-interpolation-filters="sRGB">
<feFlood flood-opacity="0" result="BackgroundImageFix"/>
<feGaussianBlur in="BackgroundImageFix" stdDeviation="2"/>
<feComposite in2="SourceAlpha" operator="in" result="effect1_backgroundBlur_0_56"/>
<feBlend mode="normal" in="SourceGraphic" in2="effect1_backgroundBlur_0_56" result="shape"/>
</filter>
<linearGradient id="paint0_linear_0_56" x1="84.875" y1="39.9375" x2="8.375" y2="71.4375" gradientUnits="userSpaceOnUse">
<stop stop-color="white" stop-opacity="0.46"/>
<stop offset="0.675496" stop-color="white" stop-opacity="0"/>
</linearGradient>
</defs>
</svg>
