<svg width="157" height="63" viewBox="0 0 157 63" fill="none" xmlns="http://www.w3.org/2000/svg">
<path d="M22.132 29.218C22.132 27.8402 22.3689 26.6374 22.8427 25.6095C23.3391 24.5817 23.9933 23.7397 24.8055 23.0836C25.6178 22.4056 26.5428 21.9026 27.5806 21.5746C28.641 21.2466 29.7352 21.0825 30.8632 21.0825C31.698 21.0825 32.4989 21.2028 33.266 21.4434C34.0557 21.6621 34.7663 21.9573 35.3981 22.3291C36.0523 22.7009 36.6164 23.1492 37.0902 23.6741C37.5865 24.1989 37.97 24.7566 38.2408 25.3471C38.8499 25.369 39.4591 25.4674 40.0682 25.6423C40.5871 25.7954 41.1286 26.036 41.6927 26.364C42.2792 26.6702 42.8207 27.1185 43.3171 27.709C42.911 26.5936 42.3356 25.5658 41.5911 24.6254C40.8466 23.6631 39.978 22.843 38.9853 22.1651C38.0152 21.4871 36.9322 20.9623 35.7365 20.5905C34.5633 20.1968 33.3224 20 32.0139 20C30.3669 20 28.8102 20.3062 27.3437 20.9185C25.8772 21.5309 24.6025 22.3619 23.5196 23.4116C22.4366 24.4614 21.5793 25.697 20.9476 27.1185C20.3159 28.5182 20 30.0272 20 31.6455C20 33.242 20.3159 34.751 20.9476 36.1725C21.5793 37.594 22.4366 38.8296 23.5196 39.8794C24.6025 40.9291 25.8772 41.7601 27.3437 42.3725C28.8102 42.9848 30.3669 43.291 32.0139 43.291C33.2999 43.291 34.5182 43.1051 35.6688 42.7333C36.842 42.3616 37.9136 41.8476 38.8838 41.1915C39.8539 40.5355 40.7112 39.7591 41.4558 38.8624C42.2003 37.9439 42.7869 36.9379 43.2155 35.8444C42.9674 35.8444 42.7417 35.8554 42.5387 35.8772C42.3582 35.8772 42.2003 35.8882 42.0649 35.9101C41.9295 35.9101 41.8731 35.9101 41.8957 35.9101C41.6927 36.7411 41.3542 37.5284 40.8804 38.272C40.4292 39.0155 39.8652 39.6716 39.1884 40.2402C38.5115 40.8088 37.7219 41.2681 36.8194 41.618C35.917 41.946 34.913 42.1101 33.8075 42.1101C32.2959 42.1101 30.8294 41.7711 29.408 41.0931C28.0092 40.3933 26.7684 39.4638 25.6854 38.3048C24.6025 37.1238 23.7339 35.757 23.0796 34.2042C22.4479 32.6296 22.132 30.9675 22.132 29.218Z" fill="white"/>
<path d="M46.0265 37.1566C46.0265 38.0095 46.1845 38.8078 46.5003 39.5513C46.8387 40.2949 47.29 40.951 47.854 41.5196C48.4406 42.0663 49.1174 42.5037 49.8845 42.8317C50.6516 43.1379 51.4751 43.291 52.355 43.291C53.2349 43.291 54.0583 43.1379 54.8254 42.8317C55.5925 42.5037 56.2581 42.0663 56.8221 41.5196C57.4087 40.951 57.8599 40.2949 58.1758 39.5513C58.5142 38.8078 58.6834 38.0095 58.6834 37.1566C58.6834 36.3037 58.5142 35.5055 58.1758 34.7619C57.8599 34.0183 57.4087 33.3732 56.8221 32.8265C56.2581 32.2578 55.5925 31.8205 54.8254 31.5143C54.0583 31.1862 53.2349 31.0222 52.355 31.0222C51.4751 31.0222 50.6516 31.1862 49.8845 31.5143C49.1174 31.8205 48.4406 32.2578 47.854 32.8265C47.29 33.3732 46.8387 34.0183 46.5003 34.7619C46.1845 35.5055 46.0265 36.3037 46.0265 37.1566ZM48.7 37.1238C48.7 36.5115 48.8128 35.9319 49.0385 35.3852C49.2866 34.8384 49.625 34.3683 50.0537 33.9746C50.4824 33.5591 50.9787 33.242 51.5428 33.0233C52.1068 32.7827 52.7047 32.6624 53.3364 32.6624C53.9907 32.6624 54.5885 32.7827 55.13 33.0233C55.694 33.242 56.1904 33.5591 56.619 33.9746C57.0477 34.3683 57.3748 34.8384 57.6005 35.3852C57.8486 35.9319 57.9727 36.5115 57.9727 37.1238C57.9727 37.7362 57.8486 38.3266 57.6005 38.8952C57.3748 39.442 57.0477 39.9231 56.619 40.3386C56.1904 40.7323 55.694 41.0494 55.13 41.29C54.5885 41.5305 53.9907 41.6508 53.3364 41.6508C52.7047 41.6508 52.1068 41.5305 51.5428 41.29C50.9787 41.0494 50.4824 40.7323 50.0537 40.3386C49.625 39.9231 49.2866 39.442 49.0385 38.8952C48.8128 38.3266 48.7 37.7362 48.7 37.1238Z" fill="white"/>
<path d="M65.5 42.5C64.9017 42.5 61.6998 38.8882 61.6553 35.0754C61.6334 33.1977 62.2843 31.1127 63.1441 29.6772C63.8959 28.4221 64.8729 27.7079 64.8362 27.4794C64.0014 27.8949 63.302 28.4744 62.738 29.218C62.1965 29.9616 61.7792 30.8473 61.4859 31.8751C61.2151 32.8811 61.0798 33.9746 61.0798 35.1556C61.0798 36.4021 61.2039 37.5393 61.452 38.5672C61.7228 39.5732 62.1289 40.437 62.6703 41.1587C63.2344 41.8804 63.9338 42.449 64.7685 42.8646C65.6259 43.2582 66.6298 43.455 67.7805 43.455C70.2396 43.455 72.1461 42.7224 73.4997 41.2571C74.876 39.7919 75.5641 37.758 75.5641 35.1556C75.5641 32.5531 74.9437 30.5192 73.7028 29.054C72.9301 28.1247 72.1136 28.5653 71.4015 29.7757C71.1576 30.1903 73.386 34.9731 72.1799 38.0095C71.6396 39.3699 71.1998 41.2528 70 42C68.3883 43.0037 65.7883 42.5 65.5 42.5Z" fill="white"/>
<path d="M81.6683 43.3566H84.3757V42.7661V27.3153L81.6683 28.1026V43.127V43.3566ZM78.961 43.3566H87.083L86.9138 42.7333C86.7333 42.8427 86.5528 42.9302 86.3723 42.9958C86.2144 43.0614 86.0339 43.0942 85.8309 43.0942C85.3796 43.0942 85.0187 42.9411 84.7479 42.6349C84.4997 42.3287 84.3757 41.9023 84.3757 41.3556C84.3757 41.0494 84.2403 40.9182 83.9696 40.9619C83.6988 41.0056 83.3717 41.0822 82.9881 41.1915C82.6046 41.0822 82.2888 41.0056 82.0406 40.9619C81.7924 40.9182 81.6683 41.0494 81.6683 41.3556C81.6683 41.6617 81.6232 41.9132 81.5329 42.1101C81.4653 42.285 81.375 42.449 81.2622 42.6021C81.1043 42.7771 80.9464 42.9083 80.7884 42.9958C80.6305 43.0614 80.4387 43.0942 80.2131 43.0942C79.9875 43.0942 79.7957 43.0614 79.6378 42.9958C79.4799 42.9302 79.3107 42.8427 79.1302 42.7333L78.961 43.3566ZM84.3757 26.9545C83.3379 27.545 82.3339 27.9386 81.3637 28.1354C80.3936 28.3323 79.604 28.4307 78.9948 28.4307L79.1302 28.9556C79.243 28.9118 79.3671 28.8681 79.5024 28.8243C79.6604 28.7587 79.8634 28.7259 80.1116 28.7259C80.5628 28.7259 80.9351 28.9009 81.2284 29.2508C81.5217 29.5788 81.6683 30.0818 81.6683 30.7598C81.8037 30.5848 81.9955 30.3771 82.2436 30.1365C82.4918 29.8741 82.7513 29.6116 83.022 29.3492C83.2927 29.0868 83.5522 28.8462 83.8004 28.6275C84.0485 28.3869 84.2403 28.2011 84.3757 28.0698V26.9545ZM84.3757 32.4328C84.3757 31.6455 84.4885 30.9675 84.7141 30.3989C84.9397 29.8303 85.233 29.3601 85.594 28.9884C85.955 28.6166 86.3611 28.3432 86.8123 28.1683C87.2635 27.9933 87.7035 27.9058 88.1321 27.9058C89.1248 27.9058 89.9032 28.2011 90.4672 28.7915C91.0312 29.3601 91.3697 30.1693 91.4825 31.219L94.0206 30.3661C93.7047 29.3164 93.1069 28.4854 92.227 27.873C91.3471 27.2388 90.1965 26.9217 88.7751 26.9217C88.3013 26.9217 87.8163 26.9982 87.3199 27.1513C86.8461 27.2825 86.4062 27.4903 86.0001 27.7746C85.6165 28.0589 85.2781 28.4088 84.9848 28.8243C84.6915 29.218 84.4885 29.6663 84.3757 30.1693V32.4328Z" fill="white"/>
<path d="M96.0471 26.9217L96.2164 27.5122C96.3969 27.4028 96.5661 27.3263 96.724 27.2825C96.8819 27.2169 97.0624 27.1841 97.2655 27.1841C97.7167 27.1841 98.0664 27.3372 98.3146 27.6434C98.5627 27.9277 98.6868 28.3323 98.6868 28.8571V29.3164V41.3884C98.6868 41.6727 98.653 41.9132 98.5853 42.1101C98.5176 42.3069 98.4274 42.4709 98.3146 42.6021C98.1792 42.7771 98.0213 42.8974 97.8408 42.963C97.6603 43.0286 97.4685 43.0614 97.2655 43.0614C97.0624 43.0614 96.8819 43.0395 96.724 42.9958C96.5661 42.9302 96.3969 42.8427 96.2164 42.7333L96.0471 43.3238H104L103.831 42.7333C103.65 42.8427 103.481 42.9302 103.323 42.9958C103.165 43.0395 102.985 43.0614 102.782 43.0614C102.398 43.0614 102.06 42.9411 101.766 42.7005C101.496 42.4381 101.36 42.0007 101.36 41.3884V28.8571C101.36 28.3323 101.484 27.9277 101.733 27.6434C101.981 27.3372 102.33 27.1841 102.782 27.1841C102.985 27.1841 103.165 27.2169 103.323 27.2825C103.481 27.3263 103.65 27.4028 103.831 27.5122L104 26.9217H96.0471ZM98.1115 24.7238C98.1115 25.2268 98.3033 25.6642 98.6868 26.036C99.0704 26.4078 99.5216 26.5937 100.04 26.5937C100.559 26.5937 101.011 26.4078 101.394 26.036C101.778 25.6642 101.969 25.2268 101.969 24.7238C101.969 24.2208 101.778 23.7834 101.394 23.4116C101.011 23.0399 100.559 22.854 100.04 22.854C99.5216 22.854 99.0704 23.0399 98.6868 23.4116C98.3033 23.7834 98.1115 24.2208 98.1115 24.7238Z" fill="white"/>
<path d="M48.4905 13.9829C48.6936 13.7799 48.6939 13.4502 48.4868 13.2512C44.909 9.81368 40.4191 7.46897 35.5458 6.49959C30.5023 5.49638 25.2745 6.01127 20.5236 7.97915C15.7727 9.94703 11.7121 13.2795 8.85518 17.5552C5.99826 21.8309 4.47339 26.8577 4.47339 32C4.47339 37.1424 5.99827 42.1692 8.85519 46.4449C11.7121 50.7206 15.7728 54.053 20.5236 56.0209C25.2745 57.9888 30.5023 58.5037 35.5458 57.5005C40.4191 56.5311 44.909 54.1864 48.4868 50.7488C48.6939 50.5499 48.6936 50.2202 48.4905 50.0171C48.2874 49.8141 47.9585 49.8145 47.7513 50.0133C44.319 53.3055 40.0145 55.5512 35.3429 56.4805C30.5011 57.4435 25.4825 56.9493 20.9216 55.0601C16.3608 53.1709 12.4626 49.9717 9.71992 45.8671C6.97727 41.7624 5.51339 36.9367 5.51339 32C5.51339 27.0634 6.97727 22.2376 9.71991 18.133C12.4626 14.0283 16.3608 10.8292 20.9216 8.93998C25.4825 7.05082 30.5011 6.55653 35.3429 7.51961C40.0145 8.44886 44.319 10.6946 47.7513 13.9868C47.9585 14.1856 48.2874 14.186 48.4905 13.9829Z" fill="#7D7CCC"/>
<path d="M47.1015 15.3722C47.1942 15.2794 47.1943 15.1289 47.1006 15.037C43.8046 11.8063 39.6374 9.60455 35.1074 8.70349C30.4998 7.78697 25.7238 8.25736 21.3835 10.0552C17.0432 11.853 13.3335 14.8975 10.7235 18.8037C8.11343 22.7099 6.72034 27.3023 6.72034 32.0002C6.72034 36.6981 8.11343 41.2905 10.7235 45.1967C13.3335 49.1029 17.0432 52.1474 21.3835 53.9452C25.7238 55.743 30.4998 56.2134 35.1075 55.2969C39.6374 54.3958 43.8046 52.194 47.1006 48.9633C47.1943 48.8715 47.1942 48.721 47.1015 48.6282C47.0087 48.5354 46.8584 48.5356 46.7647 48.6274C43.5352 51.7917 39.4526 53.9482 35.0148 54.831C30.4993 55.7291 25.8188 55.2682 21.5653 53.5063C17.3118 51.7444 13.6763 48.7608 11.1185 44.9328C8.56063 41.1047 7.1954 36.6042 7.1954 32.0002C7.1954 27.3962 8.56063 22.8957 11.1185 19.0676C13.6763 15.2395 17.3118 12.2559 21.5653 10.4941C25.8188 8.73222 30.4993 8.27123 35.0148 9.16942C39.4526 10.0522 43.5351 12.2087 46.7646 15.373C46.8584 15.4648 47.0087 15.4649 47.1015 15.3722Z" fill="#7D7CCC"/>
<path d="M45.8304 16.6431C45.873 16.6004 45.873 16.5313 45.8302 16.4889C42.7894 13.4783 38.93 11.4274 34.7317 10.5923C30.4976 9.75006 26.1089 10.1823 22.1205 11.8344C18.1321 13.4864 14.7232 16.2841 12.3248 19.8735C9.92638 23.463 8.64624 27.683 8.64624 32C8.64624 36.3171 9.92638 40.5371 12.3248 44.1266C14.7232 47.716 18.1321 50.5137 22.1205 52.1657C26.1089 53.8178 30.4976 54.25 34.7317 53.4078C38.9301 52.5727 42.7894 50.5217 45.8302 47.5112C45.873 47.4688 45.873 47.3996 45.8304 47.357C45.7878 47.3144 45.7187 47.3145 45.6758 47.3569C42.6656 50.3369 38.8451 52.3671 34.6891 53.1937C30.4974 54.0275 26.1526 53.5996 22.2041 51.9641C18.2555 50.3285 14.8807 47.5589 12.5063 44.0053C10.1319 40.4517 8.86451 36.2739 8.86451 32C8.86451 27.7262 10.1319 23.5483 12.5063 19.9948C14.8807 16.4412 18.2555 13.6715 22.204 12.036C26.1526 10.4005 30.4974 9.97256 34.6891 10.8063C38.8451 11.633 42.6655 13.6632 45.6758 16.6432C45.7187 16.6856 45.7878 16.6857 45.8304 16.6431Z" fill="#7D7CCC"/>
</svg>
